<?xml version="1.0" encoding="UTF-8"?>
<!DOCTYPE svg PUBLIC "-//W3C//DTD SVG 1.1//EN" "http://www.w3.org/Graphics/SVG/1.1/DTD/svg11.dtd">
<!-- Creator: CorelDRAW X7 -->
<svg xmlns="http://www.w3.org/2000/svg" xml:space="preserve" width="2.68909in" height="2.68909in" version="1.1" style="shape-rendering:geometricPrecision; text-rendering:geometricPrecision; image-rendering:optimizeQuality; fill-rule:evenodd; clip-rule:evenodd"
viewBox="0 0 1102 1102"
 xmlns:xlink="http://www.w3.org/1999/xlink">
 <defs>
  <style type="text/css">
   <![CDATA[
    .fil0 {fill:white}
   ]]>
  </style>
 </defs>
 <g id="Layer_x0020_1">
  <metadata id="CorelCorpID_0Corel-Layer"/>
  <path class="fil0" d="M551 0c304,0 551,247 551,551 0,304 -247,551 -551,551 -304,0 -551,-247 -551,-551 0,-304 247,-551 551,-551zm-22 76l2 1c4,5 8,7 11,7 3,-1 7,-3 11,-7 5,-5 7,-9 7,-13 0,-3 -2,-7 -6,-11l-2 -2 -23 25zm-11 10l-36 39 -8 -8 69 -74c-277,4 -500,230 -500,508 0,153 67,290 174,383 13,-45 26,-90 38,-135 2,-4 2,-10 8,-11 33,-11 67,-23 101,-34 -1,-6 0,-13 -2,-19 -17,-7 -36,-14 -49,-28 -16,-18 -25,-40 -32,-63 -8,-25 -16,-50 -17,-77 -5,-22 -2,-45 -4,-68 0,0 -1,0 -2,0 -1,17 -1,34 -1,50 2,21 4,42 9,63 8,35 19,71 42,98 -10,4 -19,9 -29,12 -1,-15 -2,-30 -4,-44 -19,2 -37,3 -56,5 5,-21 13,-41 14,-61 -21,-9 -44,-13 -65,-23 17,-18 34,-37 53,-52 -5,-7 -11,-15 -18,-21 -19,-18 -45,-27 -71,-30 23,-18 49,-34 73,-52 2,-2 6,-3 5,-7 -11,-28 -32,-51 -54,-71 -4,-3 -9,-6 -12,-12 38,-2 75,-6 113,-8 0,-2 1,-4 1,-6 -3,-21 -8,-42 -17,-61 -3,-8 -8,-15 -11,-23 30,5 60,14 86,31 17,-31 22,-68 25,-104 19,16 36,36 50,57 7,9 13,18 21,26 23,-33 58,-58 95,-74 -5,37 -1,76 8,113 9,1 16,-4 24,-7 22,-8 44,-15 66,-24 -17,31 -36,61 -53,92 -1,5 5,3 8,4 27,4 54,9 82,12 -22,23 -46,44 -69,66 0,1 0,2 0,3 25,11 50,20 73,32 -14,10 -30,19 -46,27 -18,7 -36,13 -53,19 14,21 40,29 60,43 -19,12 -40,21 -61,26 4,14 11,28 15,43 -12,3 -24,4 -36,6 -4,1 -4,5 -5,8 7,10 14,19 22,28 -10,5 -22,8 -33,11 -11,1 -13,13 -20,19 -10,12 -24,19 -39,23 -2,7 -1,14 -1,22 7,3 11,11 15,18 11,15 20,31 29,47 13,28 28,56 37,85 1,4 3,7 1,10 -13,16 -31,26 -43,42 16,18 36,31 52,49 -1,6 -3,12 -4,19 6,-5 9,-14 9,-21 -16,-17 -35,-30 -49,-48 12,-11 25,-22 36,-34 3,-4 7,-8 6,-13 -4,-14 -9,-27 -15,-39 -16,-39 -36,-77 -63,-110 15,3 29,10 44,13 13,2 27,7 41,9 8,21 12,43 19,64 20,68 40,136 54,206 2,-1 4,-1 7,-1 3,-28 4,-56 12,-83 7,-22 18,-43 32,-62 20,10 43,15 65,19 18,2 36,5 53,4 4,-1 9,0 11,-4 -6,-1 -12,-1 -18,-1 -55,0 -110,-18 -148,-58 -16,-18 -27,-40 -35,-63 -1,1 -2,2 -3,3 3,11 8,23 12,34 -9,0 -18,-3 -25,-8 -14,-9 -19,-28 -13,-43 2,-8 9,-12 15,-16 1,-5 -4,-9 -6,-14 -8,-13 -18,-25 -18,-41 1,-20 10,-37 15,-56 4,-10 -3,-21 1,-31 6,-13 16,-22 23,-34 14,-24 36,-42 57,-60 37,-26 83,-33 127,-33 27,1 54,7 77,22 11,9 27,8 36,20 13,14 27,28 37,45 11,20 27,41 27,65 1,20 3,40 7,59 3,13 -6,25 -6,38 0,7 -3,14 -4,20 6,7 13,14 14,24 0,18 -14,36 -32,40 -7,0 -10,8 -13,13 -14,20 -32,37 -53,50 -4,3 2,7 4,10 5,5 9,11 12,18 105,-93 171,-229 171,-380 0,-12 0,-23 -1,-35l-53 25 -37 39 -9 -8 37 -39 26 -64 9 9 -16 40c-1,1 -1,2 -2,4 -1,1 -1,3 -2,5 1,-1 3,-2 4,-3 2,-1 3,-2 5,-2l37 -18c-23,-253 -232,-452 -489,-461 3,3 5,6 6,8 2,3 2,6 2,9 0,4 -2,7 -4,12 -2,4 -5,8 -9,12 -6,7 -12,11 -18,13 -6,2 -11,1 -16,-2l-18 57 -10 -9 18 -56 -1 -1zm-2 71l81 -86 9 8 -81 86 -9 -8zm126 -4c1,-6 1,-11 0,-15 -2,-5 -4,-8 -7,-11 -6,-6 -13,-7 -23,-5 -9,3 -18,9 -27,19 -9,9 -14,18 -16,28 -2,9 -1,17 5,22 3,3 7,5 12,6 4,0 9,0 16,-1l-15 16c-5,0 -10,0 -14,-1 -4,-1 -7,-4 -11,-7 -4,-4 -7,-8 -8,-14 -2,-5 -2,-11 0,-18 1,-6 3,-13 7,-20 4,-7 9,-14 15,-20 6,-6 12,-12 19,-16 6,-4 13,-7 19,-9 7,-1 13,-2 19,-1 5,2 10,4 14,8 3,3 6,6 7,10 2,5 2,10 2,15l-14 14zm-50 75l81 -86 9 8 -34 36 53 -18 11 11 -57 18 -21 70 -12 -11 20 -64 -41 44 -9 -8zm136 25l4 0c3,0 5,-1 7,-2 3,-1 5,-3 7,-5 2,-2 4,-5 4,-7 1,-2 0,-4 -1,-6 -2,-1 -4,-2 -7,-1 -2,0 -4,2 -7,5 -1,1 -2,2 -3,3 0,2 -1,3 -1,5l-3 8zm-25 46l8 -32 -2 0c-5,0 -10,1 -13,2 -3,1 -6,3 -8,6 -4,4 -6,8 -7,12 0,4 0,7 3,10 2,1 4,3 7,3 4,0 7,0 12,-1zm-7 26l3 -12c-6,1 -11,1 -15,0 -4,0 -8,-2 -11,-5 -5,-5 -7,-11 -6,-19 1,-7 5,-14 12,-22 5,-5 10,-8 16,-11 6,-2 13,-3 21,-3l1 -6c1,-3 2,-7 4,-10 1,-3 3,-5 6,-8 5,-6 11,-9 17,-10 6,-1 11,0 15,4 4,4 6,8 5,14 -1,5 -4,11 -9,16 -4,5 -8,8 -13,9 -5,2 -11,3 -18,3l-8 32c2,-1 5,-2 9,-3 3,-1 6,-3 10,-4l-3 13c-3,2 -6,3 -10,4 -3,2 -6,2 -10,3l-6 25 -10 -10zm124 37c0,-1 2,-3 4,-6 3,-3 4,-5 6,-7 -2,2 -5,3 -7,5 -2,1 -4,3 -7,4l-57 33 30 -60c1,-3 2,-5 3,-7 2,-2 3,-4 4,-7 -1,2 -3,4 -5,6 -2,2 -5,4 -7,5l-45 37 -9 -7 97 -78 -35 69c0,1 -1,3 -2,6 -2,2 -4,5 -6,9 3,-2 7,-5 12,-7 1,-1 2,-2 3,-2l66 -40 -71 102 -8 -7 34 -48zm68 63c4,-5 7,-9 10,-14 2,-5 4,-10 5,-15 1,-5 1,-9 0,-13 -1,-4 -2,-7 -5,-9 -3,-3 -6,-4 -10,-5 -4,-1 -8,0 -13,1 -4,1 -9,3 -14,6 -4,3 -9,7 -13,11 -4,5 -7,9 -10,14 -3,5 -5,10 -6,15 -1,4 -1,9 0,13 1,3 3,7 6,9 2,3 6,4 9,5 4,0 9,0 13,-1 5,-1 10,-4 14,-7 5,-3 9,-6 14,-10zm9 8c-6,6 -12,11 -19,15 -6,5 -13,7 -20,9 -7,2 -13,2 -18,1 -6,-1 -11,-3 -15,-7 -3,-4 -6,-8 -8,-14 -1,-5 -1,-12 0,-18 2,-7 4,-14 8,-21 3,-6 8,-13 14,-19 6,-6 12,-11 18,-16 7,-4 14,-7 20,-8 7,-2 13,-2 19,-1 5,1 10,3 14,7 4,4 7,8 8,14 1,5 2,11 0,18 -1,7 -4,14 -7,21 -4,7 -9,13 -14,19zm25 11l1 2c5,4 9,6 12,6 3,0 7,-3 11,-7 4,-5 7,-9 7,-12 0,-4 -2,-8 -7,-12l-1 -1 -23 24zm-11 11l-36 38 -8 -8 80 -86 13 12c3,3 6,6 7,9 1,2 2,5 2,8 -1,4 -2,8 -4,12 -2,4 -5,8 -9,12 -6,7 -13,11 -18,13 -6,2 -11,2 -16,-1l-18 56 -10 -9 18 -55 -1 -1zm85 12l-70 75 -8 -9 69 -74 -14 -13 11 -12 37 35 -11 12 -14 -14zm-556 580c0,-10 0,-20 0,-30l0 0c0,-5 7,-4 7,0 0,11 0,21 0,31 -2,0 -5,-1 -7,-1zm-150 -592c9,-23 37,-38 61,-31 30,8 47,46 31,72 -19,-2 -37,-7 -56,-5 -12,1 -22,4 -34,5 -5,-13 -7,-28 -2,-41l0 0zm131 -9c29,-9 63,0 86,19 6,3 4,10 4,16 -1,6 -2,13 -7,17 -28,-8 -58,-12 -87,-11 -1,0 -4,-1 -5,-1 -2,-13 -5,-32 9,-40zm313 225c30,20 35,66 12,92 -12,14 -30,23 -48,24 -25,2 -49,-12 -63,-32 -8,-13 -10,-28 -6,-43 23,1 46,-1 69,-7 10,-3 20,-5 28,-13 5,-5 6,-13 8,-21l0 0zm59 79c-15,-24 -6,-59 17,-77 2,11 8,22 19,26 28,10 59,13 89,12 3,11 1,22 -2,32 -9,25 -35,40 -60,41 -25,2 -50,-12 -63,-34l0 0zm-433 27c5,2 3,8 3,12 -3,19 -2,38 -3,57 -3,33 -2,68 -3,102 0,4 1,9 -3,13 -2,-31 0,-62 -1,-93 0,-30 4,-61 7,-91l0 0zm-8 -10c2,-3 4,-6 7,-7 -14,30 -30,60 -40,92 -7,18 -13,36 -20,54 -1,3 -2,7 -2,11 13,14 28,25 42,38 2,2 6,4 4,7 -6,7 -11,13 -19,17 3,-7 9,-13 13,-19 -15,-15 -33,-27 -46,-43 1,-9 5,-16 8,-24 15,-43 30,-86 53,-126z"/>
 </g>
</svg>
